<svg id="레이어_1" data-name="레이어 1" xmlns="http://www.w3.org/2000/svg" viewBox="0 0 50 50"><defs><style>.cls-1{fill:#34b14f;}.cls-2{fill:#004182;}.cls-3{fill:#fff;}</style></defs><circle class="cls-1" cx="25" cy="25" r="17.5"/><path class="cls-2" d="M25,37.77A12.77,12.77,0,1,1,37.77,25,12.79,12.79,0,0,1,25,37.77ZM25,12.4A12.6,12.6,0,1,0,37.6,25,12.61,12.61,0,0,0,25,12.4Z"/><path class="cls-2" d="M16.71,35.26a.69.69,0,0,1-.43-.16,13.34,13.34,0,0,1-4-14.2A13.35,13.35,0,0,1,29.1,12.31a13.34,13.34,0,0,1,8.81,16A.65.65,0,1,1,36.65,28a12,12,0,1,0-19.51,6.1.66.66,0,0,1-.43,1.15Z"/><path class="cls-2" d="M24.84,32.48a1,1,0,0,1-1-1V20.26a1,1,0,0,1,2,0V31.5A1,1,0,0,1,24.84,32.48Z"/><circle class="cls-3" cx="37.5" cy="27.04" r="1.54"/><path class="cls-2" d="M37.5,25.5A1.54,1.54,0,1,1,36,27,1.54,1.54,0,0,1,37.5,25.5m0-1A2.52,2.52,0,1,0,40,27a2.52,2.52,0,0,0-2.52-2.52Z"/><circle class="cls-3" cx="24.84" cy="20.5" r="0.74"/><path class="cls-2" d="M24.84,19.76a.74.74,0,1,1,0,1.48.74.74,0,1,1,0-1.48m0-1a1.72,1.72,0,1,0,1.72,1.72,1.73,1.73,0,0,0-1.72-1.72Z"/></svg>