<?xml version="1.0" encoding="utf-8"?>
<!-- Generator: Adobe Illustrator 26.0.2, SVG Export Plug-In . SVG Version: 6.00 Build 0)  -->
<svg version="1.1" xmlns="http://www.w3.org/2000/svg" xmlns:xlink="http://www.w3.org/1999/xlink" x="0px" y="0px"
	 viewBox="0 0 722.9 211.7" style="enable-background:new 0 0 722.9 211.7;" xml:space="preserve">
<style type="text/css">
	.st0{display:none;}
	.st1{display:inline;opacity:0.1;fill:#E828E3;enable-background:new    ;}
	.st2{display:inline;}
	.st3{font-family:'SourceHanSansKR-Regular-KSCpc-EUC-H';}
	.st4{font-size:24px;}
	.st5{fill:#49C4C1;}
	.st6{fill:#F9BE34;}
	.st7{fill:#E4525D;}
	.st8{fill:#0A3851;}
	.st9{fill:#09B0AB;}
</style>
<g id="레이어_1">
	<g id="spacing_guides" xmlns:sketch="http://www.bohemiancoding.com/sketch/ns" class="st0">
		<path id="path40_32_" sketch:type="MSShapeGroup" class="st1" d="M-243.4-181.6v124h1268v-124H-243.4L-243.4-181.6z"/>
		<path id="path40_31_" sketch:type="MSShapeGroup" class="st1" d="M-243.4,253.4v124h1268v-124H-243.4L-243.4,253.4z"/>
		<path id="path40_30_" sketch:type="MSShapeGroup" class="st1" d="M19.3,253h62V-57h-62V253L19.3,253z"/>
		<path id="path40_29_" sketch:type="MSShapeGroup" class="st1" d="M219.8,378.4h62v-561h-62V378.4L219.8,378.4z"/>
		<text transform="matrix(1 0 0 1 13.8767 13.3668)" class="st2 st3 st4">H: 2.5 x</text>
		<text transform="matrix(1 0 0 1 226.0965 101.1988)" class="st2 st3 st4">1/2 x</text>
		<text transform="matrix(1 0 0 1 378.9118 318.8646)" class="st2 st3 st4">1x</text>
		<text transform="matrix(1 0 0 1 378.9118 -116.1344)" class="st2 st3 st4">1x</text>
		<path id="path40_27_" sketch:type="MSShapeGroup" class="st1" d="M-242.4,378.4h124v-561h-124V378.4L-242.4,378.4z"/>
		<text transform="matrix(1 0 0 1 -191.0882 101.1988)" class="st2 st3 st4">1x</text>
		<path id="path40_3_" sketch:type="MSShapeGroup" class="st1" d="M899.6,378.4h124v-561h-124V378.4L899.6,378.4z"/>
		<text transform="matrix(1 0 0 1 948.9119 101.1988)" class="st2 st3 st4">1x</text>
	</g>
	<rect x="678.8" y="4.2" width="38.4" height="203.7"/>
	<g>
		<g>
			<path d="M440.8,63.8v13.3v67.7v3c0,13.6-11,24.6-24.6,24.6h-3.9c-13.6,0-24.6-11-24.6-24.6v-3V77V63.8h-38.3v66.1v14.9v8.1
				c0,30.8,25,55.8,55.8,55.8h17.7c30.8,0,55.8-25,55.8-55.8v-8.1v-14.9V63.8H440.8z"/>
			<path d="M654.9,134.9c0-0.5,0.1-1.1,0.1-1.6c0-41-33.4-74.4-74.4-74.4s-74.4,33.4-74.4,74.4s33.4,74.4,74.4,74.4
				c12.6,0,24.4-3.2,34.8-8.7v9.1h6.7h32.8h0.3L654.9,134.9L654.9,134.9z M580.5,168.8c-19.6,0-35.5-15.9-35.5-35.5
				s15.9-35.5,35.5-35.5s35.5,15.9,35.5,35.5S600.1,168.8,580.5,168.8z"/>
			<path d="M155.5,134.9c0-0.5,0.1-1.1,0.1-1.6c0-41-33.4-74.4-74.4-74.4S6.7,92.2,6.7,133.3s33.4,74.4,74.4,74.4
				c12.6,0,24.4-3.2,34.8-8.7v9.1h6.7h32.8h0.3L155.5,134.9L155.5,134.9z M81.1,168.8c-19.6,0-35.5-15.9-35.5-35.5
				s15.9-35.5,35.5-35.5s35.5,15.9,35.5,35.5S100.7,168.8,81.1,168.8z"/>
		</g>
	</g>
	<g>
		<path class="st5" d="M303.8,207.6"/>
		<path class="st6" d="M232.1,155.6c-1.2-7.5-4.2-14.3-8.4-20.6c-1.2-1.7-2-3.3-3.9-4.9c1.3,3.1,1.8,6.2,0.9,9.5
			c-0.7,2.3-1.9,4.3-3.6,6c-11.1,11-22.2,22.1-33.3,33.1c-6.3,6.2-6.3,14.2-0.1,20.5c1.3,1.3,2.7,2.7,4,4c5.4,5.4,13.6,5.4,19,0.1
			c5.3-5.3,10.6-10.6,15.9-15.9c1.6-1.7,2.2-2.5,2.2-2.5s1.5-2.2,2-3.1C232,173.8,233.7,165.2,232.1,155.6z"/>
		<g>
			<path class="st7" d="M245.4,118.3c1.3-1.3,2.5-2.8,3.6-4.2c0.4-0.6,1.4-0.7,1.4-1.6l0.1-0.2c-14.4-14.4-29-28.8-43.4-43.3
				c-5.3-5.4-13.5-5.4-19-0.2c-1.5,1.4-2.9,2.9-4.4,4.4c-6,6-5.9,14,0.1,20c11,11,21.9,22,32.8,33.1c1.2,1.2,2.4,2.4,3.1,3.9
				c2,1.9,2.8,3.2,3.9,4.9c4.2,6.3,7.2,13.1,8.4,20.6c0.1,0.5,0.2,0.9,0.3,1.3c0.4,3.1,0.4,6.4,0,9.8c0,0-1.3,12-9.8,20.7l28.3-27.7
				L245.4,118.3z"/>
		</g>
		<g>
			<path class="st8" d="M314.2,96.7c3.3-3.2,6.7-6.3,7.8-11.1c0-1.3,0-2.7,0-4c-0.9-4.8-4.2-8.1-7.6-11.2c-0.2-0.2-0.5-0.5-0.7-0.7
				c-5.2-5.7-13.8-6-19.3-0.7c-5.5,5.4-11,10.9-16.5,16.3c0,0,0,0,0,0c-0.1,0.5-0.5,0.8-0.8,1.2c-6.2,7.7-9.5,16.4-8.9,26
				c0.1,1,0.2,2,0.3,3c0.1,0.4,0.2,0.9,0.3,1.3c1.2,7.5,4.2,14.3,8.4,20.6c1.2,1.7,1.9,3,3.9,4.9c0.3,0.3,0.3,0.2,0.4,0.3
				c-0.2-0.2-0.2-0.2-0.4-0.4c-0.3-0.4-0.4-0.7-0.6-1.1c-2-6-0.4-11,4.1-15.5C294.6,116.2,304.3,106.4,314.2,96.7z"/>
			<path class="st9" d="M280.2,141.9c-6-7.7-10.3-16.1-11.7-25.8c-0.2-1.2-0.3-2.3-0.3-3.5c-0.2-2.2-0.3-4.5,0.1-6.8l-18.2,6.9
				l5.4,41.6c-1.3,1.3-2.5,2.8-3.6,4.2c-0.4,0.6-1.4,0.7-1.4,1.6l-0.1,0.2c14.4,14.4,29,28.8,43.4,43.3c5.3,5.4,13.5,5.4,19,0.2
				c1.5-1.4,2.9-2.9,4.4-4.4c6-6,5.9-14-0.1-20c-11-11-21.9-22-32.8-33.1C283.2,145.2,280.4,142.3,280.2,141.9z"/>
			<path class="st9" d="M317.8,179.8c-6.5-6.6-12.8-13.4-19.4-19.8c-4-3.9-8-7.8-11.9-11.9c-1.7-1.8-3.3-3.6-5-5.4
				c-0.1-0.1-0.3-0.2-0.4-0.3c-2-1.9-2.8-3.2-3.9-4.9c-4.2-6.3-7.2-13.1-8.4-20.6c-0.1-0.5-0.2-0.9-0.3-1.3c-0.1-1-0.2-2-0.3-3
				c-0.5-9.7,2.7-18.3,8.9-26c0.3-0.4,0.7-0.7,0.8-1.2c0,0,0,0,0,0c-9.1,9-18.3,18-27.5,27c4.5,4.6,9.1,9.2,13.7,13.7
				c2.8,2.7,4.4,6,4.5,9.8c0.1,3.8-1.2,7.2-4,10c-4.3,4.3-8.6,8.6-12.9,12.8l-1.4,1.5c4.7,4.7,9.5,9.3,14.1,14.1
				c9.5,9.7,19.1,19.3,28.6,29c2.1,2.1,4.6,3.7,7.5,4.2c0.2,0,0.7,0.1,1,0.2c0.1,0,0.3,0,0.4,0h1.8c0.2,0,0.4,0,0.7,0
				c4.2-0.2,7.1-2.6,9.9-5.5c1.1-1.1,1.8-1.8,2.7-2.7C322.5,193.8,323.2,185.2,317.8,179.8z M268.3,114.3c-0.1-0.6-0.1-1.1-0.1-1.7
				C268.2,113.2,268.2,113.7,268.3,114.3z"/>
		</g>
		<path class="st8" d="M250.5,112.3L250.5,112.3l-10,10.3c-0.4,0.4-0.8,0.8-1.2,1.1c-2.5,2.1-12.2,11.4-3.3,21.9l14.5,14.5
			l10.5-10.3c0.2-0.2,0.4-0.4,0.6-0.6c1.4-1.2,7.5-6.7,7.1-13.1c0,0,0.5-6.2-5.4-11.2L250.5,112.3z"/>
	</g>
</g>
<g id="레이어_2">
</g>
</svg>
