<svg id="레이어_1" data-name="레이어 1" xmlns="http://www.w3.org/2000/svg" viewBox="0 0 50 50"><defs><style>.cls-1{fill:#6f7273;}.cls-2{fill:#85c300;}</style></defs><path id="Path_953" data-name="Path 953" class="cls-1" d="M29.94,20.45h0a1,1,0,0,1,.35-1.31h0l4.87-2.81a.52.52,0,0,0,.19-.7.5.5,0,0,0-.19-.19L25.5,9.87a1,1,0,0,0-1,0l-9.67,5.57a.53.53,0,0,0-.18.71.77.77,0,0,0,.18.18l4.87,2.81a1,1,0,0,1,.36,1.31h0a1,1,0,0,1-1.32.36h0l-7-4a1,1,0,0,1-.38-1.39,1,1,0,0,1,.38-.38L24.49,7.64a1,1,0,0,1,1,0L38.26,15a1,1,0,0,1,.38,1.39,1,1,0,0,1-.38.38l-7,4a1,1,0,0,1-1.31-.35Z"/><path id="Path_954" data-name="Path 954" class="cls-2" d="M35.34,30.4,26.5,25.3a1,1,0,0,1-.51-.89V14.19a1,1,0,0,1,1-1,1.14,1.14,0,0,1,.51.13l3.23,1.87a1,1,0,0,1,.35,1.32h0a1,1,0,0,1-1.31.35l-1.11-.63a.51.51,0,0,0-.69.18.48.48,0,0,0-.07.26v6.62a1,1,0,0,0,.5.89l6.52,3.76V25.77a1,1,0,0,1,1-1h0a1,1,0,0,1,1,1h0V29.5a1,1,0,0,1-1,1A.93.93,0,0,1,35.34,30.4Z"/><path id="Path_955" data-name="Path 955" class="cls-1" d="M26,41.47V33.38a1,1,0,0,1,1-1h0a1,1,0,0,1,1,1V39a.5.5,0,0,0,.5.51.59.59,0,0,0,.26-.07l9.66-5.58a1,1,0,0,0,.51-.88V21.83a.51.51,0,0,0-.51-.51.52.52,0,0,0-.25.07l-4.87,2.82a1,1,0,0,1-1.31-.34v0h0a1,1,0,0,1,.35-1.32l7-4a1,1,0,0,1,1.39.37,1,1,0,0,1,.14.51V34.1a1,1,0,0,1-.51.89L27.52,42.35A1,1,0,0,1,26.13,42,1,1,0,0,1,26,41.47Z"/><path id="Path_956" data-name="Path 956" class="cls-2" d="M13.11,29.52V25.79a1,1,0,0,1,1-1h0a1,1,0,0,1,1,1v2.15l6.52-3.76a1,1,0,0,0,.51-.88V16.66a.5.5,0,0,0-.5-.51.48.48,0,0,0-.26.07l-1.11.63a1,1,0,0,1-1.32-.35h0a1,1,0,0,1,.36-1.32l3.23-1.87a1,1,0,0,1,1.55.88V24.42a1,1,0,0,1-.51.89l-8.85,5.1a1,1,0,0,1-1.4-.33,1.09,1.09,0,0,1-.15-.56Z"/><path id="Path_957" data-name="Path 957" class="cls-1" d="M22.47,42.35,9.73,35a1,1,0,0,1-.51-.89V19.37a1,1,0,0,1,1.53-.88l7,4a1,1,0,0,1,.36,1.32h0a1,1,0,0,1-1.32.36h0L11.9,21.39a.52.52,0,0,0-.7.19.57.57,0,0,0-.06.25V33a1,1,0,0,0,.51.88l9.65,5.58a.52.52,0,0,0,.7-.18.59.59,0,0,0,.07-.26V33.39a1,1,0,0,1,1-1h0a1,1,0,0,1,1,.94h0v8.09a1,1,0,0,1-1,1,1,1,0,0,1-.54-.15Z"/><path id="Path_958" data-name="Path 958" class="cls-2" d="M29.8,35.4h0a1,1,0,0,1,.35-1.32l1.1-.63a.51.51,0,0,0,.19-.7.55.55,0,0,0-.19-.18L25.5,29.25a1,1,0,0,0-1,0l-5.76,3.32a.49.49,0,0,0-.19.68.46.46,0,0,0,.19.2l1.1.63a1,1,0,0,1,.36,1.32h0a1,1,0,0,1-1.32.35l-3.23-1.86a1,1,0,0,1-.38-1.39,1,1,0,0,1,.38-.38L24.49,27a1,1,0,0,1,1,0l8.85,5.1a1,1,0,0,1,.37,1.4,1.09,1.09,0,0,1-.37.37l-3.23,1.86a1,1,0,0,1-1.32-.35Z"/></svg>