<svg id="레이어_1" data-name="레이어 1" xmlns="http://www.w3.org/2000/svg" xmlns:xlink="http://www.w3.org/1999/xlink" viewBox="0 0 50 50"><defs><style>.cls-1{fill:url(#무제_그라디언트_2);}.cls-2{opacity:0.5;}.cls-3{fill:#fff;}</style><linearGradient id="무제_그라디언트_2" x1="25" y1="38.1" x2="25" y2="9.6" gradientTransform="matrix(1, 0, 0, -1, 0, 52)" gradientUnits="userSpaceOnUse"><stop offset="0" stop-color="#009fc3"/><stop offset="1" stop-color="#005d73"/></linearGradient></defs><circle class="cls-1" cx="25" cy="25" r="17.5"/><g class="cls-2"><path class="cls-3" d="M12.39,17.94H11.34v3h1A1.53,1.53,0,0,0,14,19.45,1.46,1.46,0,0,0,12.39,17.94Zm-.12,2.63h-.52V18.33h.61a1.08,1.08,0,0,1,1.18,1.12A1.14,1.14,0,0,1,12.27,20.57Z"/><path class="cls-3" d="M15.51,18.89a.83.83,0,0,0-.7.34h0V18h-.39v3h.39v-.29h0a.85.85,0,0,0,.7.34,1.06,1.06,0,0,0,0-2.12Zm0,1.76a.7.7,0,0,1,0-1.4.7.7,0,0,1,0,1.4Z"/><polygon class="cls-3" points="17.74 20.48 17.13 18.94 16.69 18.94 17.51 20.96 17.93 20.96 18.73 18.94 18.32 18.94 17.74 20.48"/><rect class="cls-3" x="19.11" y="18.94" width="0.38" height="2.02"/><path class="cls-3" d="M20.91,19.79c-.17,0-.52-.08-.52-.32s.16-.22.34-.22a.48.48,0,0,1,.41.2l.3-.23a.78.78,0,0,0-.69-.33c-.38,0-.77.2-.77.62s.29.49.62.57c.17,0,.48.09.48.32s-.21.25-.4.25a.63.63,0,0,1-.49-.24l-.29.24a.87.87,0,0,0,.78.36c.4,0,.81-.18.81-.64S21.24,19.87,20.91,19.79Z"/><rect class="cls-3" x="21.97" y="18.94" width="0.38" height="2.02"/><path class="cls-3" d="M23.6,20.65c-.29,0-.29-.24-.29-.46v-.92h.39v-.33h-.39v-.58h-.39v2c0,.33,0,.69.6.69a.91.91,0,0,0,.35-.07v-.35A.53.53,0,0,1,23.6,20.65Z"/><path class="cls-3" d="M20.8,17.17a1.83,1.83,0,0,0-1.62,1.11h0a0,0,0,0,0,0,0s0,0,0,0h0a1.78,1.78,0,0,1,1.4-.82,1.12,1.12,0,0,1,1.27,1,.25.25,0,0,0,.26.2.27.27,0,0,0,.27-.29A1.52,1.52,0,0,0,20.8,17.17Z"/></g><path class="cls-3" d="M13.7,23.69l-.6.6a1,1,0,0,0-.66-.36.44.44,0,0,0-.25.06.21.21,0,0,0-.1.18.2.2,0,0,0,.06.14,1.52,1.52,0,0,0,.29.18l.35.18a2,2,0,0,1,.77.56,1.09,1.09,0,0,1,.21.67,1.12,1.12,0,0,1-.37.86,1.46,1.46,0,0,1-1,.34A1.59,1.59,0,0,1,11,26.44l.59-.64a1.76,1.76,0,0,0,.4.32.9.9,0,0,0,.41.12.52.52,0,0,0,.31-.09.29.29,0,0,0,.11-.22c0-.14-.14-.29-.42-.43l-.33-.16c-.62-.32-.93-.71-.93-1.18a1.05,1.05,0,0,1,.35-.79,1.32,1.32,0,0,1,.9-.32,1.58,1.58,0,0,1,.71.17A1.49,1.49,0,0,1,13.7,23.69Z"/><path class="cls-3" d="M14.65,21.73h1v1.42h.57V24h-.57v3h-1V24h-.5v-.83h.5Z"/><path class="cls-3" d="M19.55,23.15h1V27h-1v-.4A1.89,1.89,0,0,1,19,27a1.54,1.54,0,0,1-.61.12,1.69,1.69,0,0,1-1.29-.58,2,2,0,0,1-.55-1.44,2.08,2.08,0,0,1,.53-1.46,1.68,1.68,0,0,1,1.28-.57,1.57,1.57,0,0,1,.65.13,1.89,1.89,0,0,1,.56.39v-.42Zm-1,.79a1,1,0,0,0-.75.32,1.13,1.13,0,0,0-.3.81,1.14,1.14,0,0,0,.31.82,1,1,0,0,0,.74.33,1,1,0,0,0,.76-.32,1.16,1.16,0,0,0,.3-.83,1.13,1.13,0,0,0-.3-.82A1.07,1.07,0,0,0,18.54,23.94Z"/><path class="cls-3" d="M21.5,23.15h1v.39a2.34,2.34,0,0,1,.6-.38,1.5,1.5,0,0,1,.55-.11,1.31,1.31,0,0,1,1,.4,1.4,1.4,0,0,1,.33,1V27H24V25.32a4.43,4.43,0,0,0-.06-.92.57.57,0,0,0-.6-.46.71.71,0,0,0-.5.19,1,1,0,0,0-.29.55,4,4,0,0,0-.05.78V27h-1V23.15Z"/><path class="cls-3" d="M28.69,21.66h1V27h-1v-.4a1.74,1.74,0,0,1-.56.38,1.59,1.59,0,0,1-.62.12,1.69,1.69,0,0,1-1.29-.58,2,2,0,0,1-.55-1.44,2.08,2.08,0,0,1,.53-1.46,1.68,1.68,0,0,1,1.28-.57,1.57,1.57,0,0,1,.65.13,1.89,1.89,0,0,1,.56.39V21.66Zm-1,2.28a1,1,0,0,0-.75.32,1.16,1.16,0,0,0-.29.81,1.13,1.13,0,0,0,.3.82,1,1,0,0,0,.74.33,1,1,0,0,0,.76-.32,1.16,1.16,0,0,0,.3-.83,1.13,1.13,0,0,0-.3-.82A1,1,0,0,0,27.68,23.94Z"/><path class="cls-3" d="M31.6,21.66v1.91a1.81,1.81,0,0,1,.57-.39,1.57,1.57,0,0,1,.65-.13,1.68,1.68,0,0,1,1.28.57,2.08,2.08,0,0,1,.53,1.46,2,2,0,0,1-.55,1.44,1.69,1.69,0,0,1-1.29.58,1.59,1.59,0,0,1-.62-.12,1.89,1.89,0,0,1-.57-.38V27h-1V21.66Zm1,2.28a1,1,0,0,0-.76.31,1.13,1.13,0,0,0-.3.82,1.16,1.16,0,0,0,.3.83,1,1,0,0,0,.76.32,1,1,0,0,0,.74-.33,1.13,1.13,0,0,0,.3-.82,1.16,1.16,0,0,0-.29-.81A1,1,0,0,0,32.62,23.94Z"/><path class="cls-3" d="M35,23.15h1l1,2.42,1.1-2.42h1l-2.41,5.26h-1l.79-1.69Z"/></svg>