<svg id="레이어_1" data-name="레이어 1" xmlns="http://www.w3.org/2000/svg" viewBox="0 0 50 50"><defs><style>.cls-1{fill:#23c386;}.cls-2{fill:#0e6655;}.cls-3{fill:#b22449;}.cls-4{fill:#e6325a;}.cls-5{fill:#fff;}.cls-6{fill:#222;}</style></defs><g id="Layer_2" data-name="Layer 2"><g id="Artwork"><g id="full-color_mascot" data-name="full-color mascot"><path class="cls-1" d="M29.34,33.68A2,2,0,0,0,28,34.84s-.1.54-3,.57H25c-2.87,0-3-.57-3-.57a2,2,0,0,0-1.34-1.16c-5-.82-5.7-2.46-5.84-3.66a6.68,6.68,0,0,1,.35-2.41c.49-1.7,1.18-4,.57-5.44-.34-.79-1.26-1.91-3.72-2.82l0,0c-.44-.15-2-.78-2.92-1.21a6.71,6.71,0,0,1-2.42-1.8,7,7,0,0,1-1.1-1.73c4.88,3.26,8.19,2.53,9.6,3.24a2.93,2.93,0,0,1,1.35,1.49c1.44-2.2,4-3.62,8.14-3.62h.74c4.14,0,6.7,1.42,8.14,3.62a2.85,2.85,0,0,1,1.35-1.49c1.41-.71,4.72,0,9.6-3.24a7.31,7.31,0,0,1-2,2.63A13.09,13.09,0,0,1,39,18.91c-2.14.83-4.35,1.72-4.75,3.21s.15,3.57.59,5.38a11.41,11.41,0,0,1,.35,2.32C35.14,31,34.58,32.82,29.34,33.68Z"/><path class="cls-2" d="M45,14.59a.54.54,0,0,0-.54-.54h0a.52.52,0,0,0-.29.09,15.94,15.94,0,0,1-7.52,2.74,6.46,6.46,0,0,0-2,.47h0a3.53,3.53,0,0,0-1.16,1c-1.72-2.1-4.43-3.17-8.08-3.17h-.74c-3.66,0-6.37,1.07-8.09,3.17a3.43,3.43,0,0,0-1.16-1h0a6.56,6.56,0,0,0-2-.46,16.1,16.1,0,0,1-7.52-2.75.54.54,0,0,0-.79.67c.09.2.43,1.09.52,1.34.42,1.09,2,3.37,2.28,6.08,0,.26.08.57.15.87l1.56.24-1.24.93a6.7,6.7,0,0,0,1.84,2.86L12,26.2l-.68,1.66a6.24,6.24,0,0,0,3.15.35,5.53,5.53,0,0,0-.18,1.87,3.39,3.39,0,0,0,1.32,2.33,10.74,10.74,0,0,0,5,1.8,1.48,1.48,0,0,1,.94.82c.2.6,1.3.89,3.46.92h.1a8.84,8.84,0,0,0,2.74-.33,1.09,1.09,0,0,0,.73-.59,1.45,1.45,0,0,1,.94-.82,10.39,10.39,0,0,0,5.11-1.92,3.24,3.24,0,0,0,1.17-2.44V29.8a10.73,10.73,0,0,0-.18-1.6,6.51,6.51,0,0,0,1.25.06l-.22-1.62,1.11,1.44.12-.95.7.76A5,5,0,0,0,40.77,26L39,24.43l2.37.55a7.19,7.19,0,0,0,.7-2.16L41,22.29s1.19-.17,1.19-.18l-1.54-.74,1.63,0a24.37,24.37,0,0,1,2.17-5.25c.09-.23.44-1.11.53-1.32A.46.46,0,0,0,45,14.59ZM29.34,33.68A2,2,0,0,0,28,34.84s-.1.54-3,.57H25c-2.87,0-3-.57-3-.57a2,2,0,0,0-1.34-1.16c-5-.82-5.7-2.46-5.84-3.66a6.68,6.68,0,0,1,.35-2.41c.49-1.7,1.18-4,.57-5.44-.34-.79-1.26-1.91-3.72-2.82l0,0c-.44-.15-2-.78-2.92-1.21a6.71,6.71,0,0,1-2.42-1.8,7,7,0,0,1-1.1-1.73c4.88,3.26,8.19,2.53,9.6,3.24a2.93,2.93,0,0,1,1.35,1.49c1.44-2.2,4-3.62,8.14-3.62h.74c4.14,0,6.7,1.42,8.14,3.62a2.85,2.85,0,0,1,1.35-1.49c1.41-.71,4.72,0,9.6-3.24a7.31,7.31,0,0,1-2,2.63A13.09,13.09,0,0,1,39,18.91c-2.14.83-4.35,1.72-4.75,3.21s.15,3.57.59,5.38a11.41,11.41,0,0,1,.35,2.32c-.06,1.22-.62,3-5.86,3.86Z"/><g id="Spots"><path class="cls-2" d="M26,16.89a4.51,4.51,0,0,1,1.63,0c.31.05.52.28.35.44a1.8,1.8,0,0,1-1.39.26C25.89,17.43,25.67,17.09,26,16.89Z"/><path class="cls-2" d="M25.86,18.15c.75,0,.34.79-.11.88s-1.14-.14-1.05-.43S25.47,18.13,25.86,18.15Z"/><path class="cls-2" d="M23.52,16.76a1.46,1.46,0,0,1,1.26.77c.06.31-.32.44-1.26.58s-1.79-.32-1.79-.58S23,16.81,23.52,16.76Z"/></g><g id="Creases"><path class="cls-2" d="M20.79,27.43C21,27.38,22.51,27,22.87,26,22.88,26,23.4,27.62,20.79,27.43Z"/><path class="cls-2" d="M27.15,26c.39,1.14,2.1,1.47,2.1,1.47C26.46,27.56,27.15,26,27.15,26Z"/></g><g id="Brow"><path class="cls-2" d="M17.34,22.54c1.17,0,2.63,1.28,4.85,2.15.8.32,1.68.57,1.8.61a8.32,8.32,0,0,1-1.31.16,2.58,2.58,0,0,1-2.36,1.29,2.33,2.33,0,0,1-2.48-2,2.88,2.88,0,0,1-.05-.83,6.62,6.62,0,0,1,2.14.23,6.13,6.13,0,0,0-2.33-.81,3.38,3.38,0,0,0-1.18.18S16.63,22.55,17.34,22.54Z"/><path class="cls-2" d="M32.59,23.37h0a6.49,6.49,0,0,0-2.33.81A6.62,6.62,0,0,1,32.4,24a3,3,0,0,1,0,.84,2.33,2.33,0,0,1-2.48,2,2.58,2.58,0,0,1-2.36-1.29,8.76,8.76,0,0,1-1.32-.16c.13,0,1-.29,1.81-.61,2.23-.87,3.68-2.19,4.85-2.15.7,0,.9,1,.9,1A3.24,3.24,0,0,0,32.59,23.37Z"/></g><g id="Eyes"><path class="cls-3" d="M30.26,24.19A6.56,6.56,0,0,1,32.39,24a3,3,0,0,1,0,.84,2.32,2.32,0,0,1-2.47,2,2.58,2.58,0,0,1-2.36-1.29A15.76,15.76,0,0,0,30.26,24.19Z"/><path class="cls-3" d="M22.69,25.47a2.6,2.6,0,0,1-2.36,1.29,2.33,2.33,0,0,1-2.48-2,3,3,0,0,1,0-.84,6.56,6.56,0,0,1,2.13.23A15.76,15.76,0,0,0,22.69,25.47Z"/></g><g id="Pupil_Shine" data-name="Pupil Shine"><path id="Pupil" class="cls-4" d="M19.43,24.75s2.41.6,2.33,1-.85.8-1.58.65-1.18-1-1.32-1.23-.19-.74.58-.46Z"/><path id="Pupil-2" class="cls-4" d="M30.84,24.75s-2.41.6-2.32,1,.85.8,1.58.65,1.17-1,1.31-1.23.19-.74-.57-.46Z"/><path id="Shine" class="cls-5" d="M20.85,25.23s.78.19.8.54-1.14-.4-1.44-.52S20.2,25,20.85,25.23Z"/><path id="Shine-2" class="cls-5" d="M29.41,25.23s-.78.19-.8.54,1.14-.4,1.44-.52S30.06,25,29.41,25.23Z"/></g><path id="Grin" class="cls-6" d="M32.91,27.53c-.08.93-.71,1.45-2.44,1.45l-.66,0c-1.87-.12-2.68-.39-4.7-.39s-2.84.27-4.7.39c-.22,0-.44,0-.66,0-1.73,0-2.37-.52-2.45-1.45-1.41,1.16.41,2.82,1.8,3.52a13.5,13.5,0,0,0,5.73,1.13h.56a13.65,13.65,0,0,0,5.73-1.13h0C32.49,30.36,34.33,28.69,32.91,27.53Z"/><g id="Teeth"><path class="cls-5" d="M18.1,30c-.42-.36-1.08-1-1-1.63,0,0,0,0,.05,0l0,0a2.08,2.08,0,0,0,1.42.87,0,0,0,0,1,0,0s0,0,0,0l-.5.7s0,0-.06,0Z"/><path class="cls-5" d="M19.15,30.7a5.46,5.46,0,0,1-.7-.43.06.06,0,0,1,0-.09l.53-.76a0,0,0,0,1,.06,0s0,0,0,0l.19,1.19C19.25,30.7,19.21,30.73,19.15,30.7Z"/><path class="cls-5" d="M19.59,30.72l-.2-1.26a.13.13,0,0,1,.1-.15h.25c.21,0,.44,0,.7,0h0a.11.11,0,0,1,.13.11.1.1,0,0,1,0,.09l-.94,1.25s0,0-.06,0S19.59,30.73,19.59,30.72Z"/><path class="cls-5" d="M21.74,31.55a11.11,11.11,0,0,1-1.67-.44.18.18,0,0,1-.1-.22l0,0,1.1-1.48a0,0,0,0,1,0,0l0,0,.76,1.95a.15.15,0,0,1-.09.21A.12.12,0,0,1,21.74,31.55Z"/><path class="cls-5" d="M22.34,31.5l-.8-2.09a.16.16,0,0,1,.09-.22h0l.67-.08,1.2-.13a.12.12,0,0,1,.13.12.07.07,0,0,1,0,.06L22.42,31.5a0,0,0,0,1-.06,0A0,0,0,0,1,22.34,31.5Z"/><path class="cls-5" d="M24.54,31.84c-.57,0-1.09-.06-1.59-.11a.18.18,0,0,1-.15-.19.14.14,0,0,1,0-.06l1.06-2a0,0,0,0,1,.06,0l0,0,.74,2.17a.16.16,0,0,1-.1.21Z"/><path class="cls-5" d="M25.15,31.65a0,0,0,0,1-.06,0,0,0,0,0,1,0,0l-.86-2.51a.16.16,0,0,1,.1-.21h1.54a.15.15,0,0,1,.16.17.07.07,0,0,1,0,.05Z"/><path class="cls-5" d="M27.25,31.73c-.49.05-1,.09-1.59.11a.16.16,0,0,1-.17-.16s0,0,0-.06l.75-2.17a.05.05,0,0,1,.05,0l0,0,1.06,2a.16.16,0,0,1-.07.22Z"/><path class="cls-5" d="M27.78,31.5l-1.24-2.35a.13.13,0,0,1,.05-.17h.07l1.2.13.72.09a.12.12,0,0,1,.12.13.06.06,0,0,0,0,0l-.83,2.13s0,0-.05,0Z"/><path class="cls-5" d="M30.13,31.11a10.93,10.93,0,0,1-1.68.44.16.16,0,0,1-.19-.13.14.14,0,0,1,0-.09L29,29.38a0,0,0,0,1,.06,0h0l1.1,1.48a.16.16,0,0,1,0,.23Z"/><path class="cls-5" d="M30.81,29.46l-.2,1.26a0,0,0,0,1-.05,0s0,0,0,0l-.94-1.25a.14.14,0,0,1,0-.18.1.1,0,0,1,.09,0h.05c.25,0,.49,0,.69,0h.23a.12.12,0,0,1,.13.12Z"/><path class="cls-5" d="M31.75,30.27a6.25,6.25,0,0,1-.7.43c-.06,0-.1,0-.09-.06l.19-1.2a0,0,0,0,1,.05,0h0l.53.76a.06.06,0,0,1,0,.09Z"/><path class="cls-5" d="M32.36,29.77l-.25.23a0,0,0,0,1-.06,0h0l-.5-.7s0-.05,0-.06h0a2.44,2.44,0,0,0,.91-.34,1.49,1.49,0,0,0,.51-.52s0,0,.06,0,0,0,0,0a.81.81,0,0,1,0,.22A2.16,2.16,0,0,1,32.36,29.77Z"/></g></g></g></g></svg>