<svg id="레이어_1" data-name="레이어 1" xmlns="http://www.w3.org/2000/svg" viewBox="0 0 50 50"><defs><style>.cls-1{fill:#008adc;fill-rule:evenodd;}</style></defs><path class="cls-1" d="M25,7.27A17.73,17.73,0,1,0,42.5,25,17.61,17.61,0,0,0,25,7.27ZM35.73,26.45a7.42,7.42,0,0,0-1.07.56,18.61,18.61,0,0,0-3.31,2.19,12.94,12.94,0,0,0-3.92,4.71l-.52,1.17-2.47-1L25,32.89a13.75,13.75,0,0,1,2.52-3.69H15.15V26.63H30.37a15.38,15.38,0,0,1,2.42-1.54,16.92,16.92,0,0,1-2.56-1.63H15.15V20.89H27.38A13,13,0,0,1,25,17.25l-.51-1.16,2.47-1,.52,1.16A12.6,12.6,0,0,0,31.35,21a20.62,20.62,0,0,0,3.26,2.15,8.66,8.66,0,0,0,1.08.56,2.29,2.29,0,0,1,.37.19l0,2.33A3.14,3.14,0,0,1,35.73,26.45Z"/></svg>