<svg id="레이어_1" data-name="레이어 1" xmlns="http://www.w3.org/2000/svg" viewBox="0 0 50 50"><defs><style>.cls-1{fill:#00b1b1;}</style></defs><path class="cls-1" d="M30.93,31.52a1.7,1.7,0,1,0-1.4-1.67A1.56,1.56,0,0,0,30.93,31.52Z"/><path class="cls-1" d="M39.53,15.1l-12-6.92a5.1,5.1,0,0,0-5.1,0l-12,6.92a5.1,5.1,0,0,0-2.55,4.42V33.35a5.1,5.1,0,0,0,2.55,4.42l8.19,4.73A4.84,4.84,0,0,1,18,39.71a3.76,3.76,0,0,1,1.66-2.44.46.46,0,0,1,.71.24.76.76,0,0,0,.59.57,21.93,21.93,0,0,0,4,.31,21.73,21.73,0,0,0,4-.31.77.77,0,0,0,.6-.56.46.46,0,0,1,.71-.25A3.76,3.76,0,0,1,32,39.71a4.84,4.84,0,0,1-.65,2.79l8.19-4.73a5.1,5.1,0,0,0,2.55-4.42V19.52A5.1,5.1,0,0,0,39.53,15.1ZM14.94,23.75c0-.41,0-2.44,0-4.6a2.16,2.16,0,0,1,.72-1.6A13.76,13.76,0,0,1,25,14.24a13.76,13.76,0,0,1,9.33,3.31,2.16,2.16,0,0,1,.72,1.6c0,2.16,0,4.19,0,4.6V29c0,3.14-1.67,4.74-4.94,4.74H19.88c-3.27,0-4.94-1.6-4.94-4.74ZM32.47,36.41a63.3,63.3,0,0,1-7.47.26,63.3,63.3,0,0,1-7.47-.26c-3.8-.64-5.14-5.41-5.14-9.11s.41-6,1-7c.09-.16.25-.41.47-.72V29c0,3.74,2.13,5.81,6,5.81H30.12c3.87,0,6-2.07,6-5.81V19.56c.22.31.38.56.47.72.61,1,1,3.46,1,7S36.27,35.77,32.47,36.41Z"/><ellipse class="cls-1" cx="19.07" cy="29.85" rx="1.4" ry="1.68"/></svg>