<svg id="레이어_1" data-name="레이어 1" xmlns="http://www.w3.org/2000/svg" viewBox="0 0 50 50"><defs><style>.cls-1{fill:#1063e9;}</style></defs><path class="cls-1" d="M25,7.5A17.5,17.5,0,1,0,42.5,25,17.52,17.52,0,0,0,25,7.5ZM8.55,25.66c0-.22,0-.44,0-.66A16.46,16.46,0,0,1,37.64,14.46a13.87,13.87,0,0,0-14-2.45,14,14,0,0,0-3,1.63h0l0,0a9,9,0,0,0-3.29,7c0,.28,0,.55,0,.82s0,.25.05.37a2.9,2.9,0,0,0,.06.41c0,.16.06.31.1.47l.06.26a2.33,2.33,0,0,1,.07.25h0v.05l.06.17,0,.08.26.78,0,0,.18.37a2,2,0,0,1,.1.21l.19.32c.07.13.15.26.23.38l.18.26a5.3,5.3,0,0,0,.34.45l.13.17c.15.18.31.35.47.51l.06.07a8,8,0,0,0,.62.56l.06.05c.18.15.38.29.58.43l.15.11c.18.11.35.22.54.32l.2.11a6.45,6.45,0,0,0,.59.29l.14.06a7.61,7.61,0,0,0,.75.28l.23.06c.18.06.37.1.55.15l.29,0a5.43,5.43,0,0,0,.56.09l.26,0a7.87,7.87,0,0,0,.84,0,9,9,0,0,0,5.71-2,8,8,0,0,1,.21,1.78A7.94,7.94,0,0,1,31,33.5a.05.05,0,0,1,0,0A12.86,12.86,0,0,1,8.55,25.66Zm10.3-2.17.19-.16.26-.23.34-.24.28-.2.36-.21.3-.17L21,22.1l.3-.13.41-.15.3-.1.44-.11.3-.07.5-.07.25,0c.25,0,.51,0,.77,0s.49,0,.73,0l.1,0h.14l.49.08h0l.24.05.49.13.21.05.61.23.2.09.46.22.11.06.11.06c.15.09.3.17.44.27l.17.11.5.37,0,0,.08.07.43.39a1.85,1.85,0,0,0,.14.14l.35.39.06.07.12.15.27.36.15.23a.61.61,0,0,1,.07.1l.14.23.11.19.14.27.14.29.12.28.05.15a7.94,7.94,0,0,1-5.37,2.08c-.25,0-.49,0-.74,0l-.22,0-.51-.08-.23,0L24,28.27l-.11,0c-.22-.07-.44-.15-.65-.24l-.2-.09-.45-.22-.19-.1c-.18-.1-.35-.2-.51-.31l-.09-.05c-.2-.14-.39-.28-.57-.43l-.09-.08-.43-.39-.14-.14-.35-.39-.14-.15-.37-.51c-.06-.08-.11-.17-.16-.25s-.15-.23-.22-.35l-.18-.35L19,24c-.06-.14-.12-.27-.17-.42Zm6.15,18a16.42,16.42,0,0,1-12.64-5.93,13.84,13.84,0,0,0,13.17,2.73,14.07,14.07,0,0,0,6.33-4.13,9.18,9.18,0,0,0,1.38-4.77,8.74,8.74,0,0,0-.39-2.57h0l0-.05-.06-.17,0-.08a.78.78,0,0,0,0-.14,7.81,7.81,0,0,0-.42-1,2,2,0,0,0-.1-.21c0-.11-.12-.21-.18-.32s-.15-.26-.24-.38a2.33,2.33,0,0,0-.17-.26l-.32-.43-.16-.19c-.15-.18-.3-.35-.46-.51L30.58,23a6.53,6.53,0,0,0-.62-.56l-.05-.05L29.33,22l-.18-.12-.51-.31-.21-.11a6.27,6.27,0,0,0-.58-.29l-.15-.06a6.61,6.61,0,0,0-.74-.28l-.23-.06-.56-.15-.29,0a5.25,5.25,0,0,0-.55-.09l-.27,0a7.56,7.56,0,0,0-.83,0,7.87,7.87,0,0,0-.84,0l-.27,0-.56.09-.31.06-.5.13-.32.1L21,21l-.31.13-.46.21-.29.15-.46.28-.25.15c-.18.12-.35.26-.53.39l-.14.11h0v0a7,7,0,0,1-.13-.78.43.43,0,0,1,0-.11,8.49,8.49,0,0,1-.05-.88,8,8,0,0,1,2.9-6.15,12.86,12.86,0,0,1,20.24,9.87c0,.22,0,.44,0,.66A16.49,16.49,0,0,1,25,41.47Z"/><path class="cls-1" d="M25.77,14.19a2.32,2.32,0,1,0,2.32,2.32A2.31,2.31,0,0,0,25.77,14.19Zm0,3.6a1.29,1.29,0,0,1,0-2.57,1.29,1.29,0,1,1,0,2.57Z"/><path class="cls-1" d="M13.93,21.4a2.32,2.32,0,1,0-2.31-2.32A2.32,2.32,0,0,0,13.93,21.4Zm0-3.61a1.29,1.29,0,1,1-1.28,1.29A1.29,1.29,0,0,1,13.93,17.79Z"/><path class="cls-1" d="M37.1,24a2.83,2.83,0,1,0,2.83,2.83A2.84,2.84,0,0,0,37.1,24Zm0,4.63a1.8,1.8,0,1,1,1.8-1.8A1.81,1.81,0,0,1,37.1,28.6Z"/><path class="cls-1" d="M22.43,32.46a2.84,2.84,0,1,0-2.83,2.83A2.83,2.83,0,0,0,22.43,32.46Zm-2.83,1.8a1.8,1.8,0,1,1,1.8-1.8A1.8,1.8,0,0,1,19.6,34.26Z"/><path class="cls-1" d="M36.84,19.08a3.35,3.35,0,1,0-3.35,3.35A3.35,3.35,0,0,0,36.84,19.08ZM33.49,21.4a2.32,2.32,0,1,1,2.32-2.32A2.32,2.32,0,0,1,33.49,21.4Z"/><path class="cls-1" d="M13.93,23.46a3.35,3.35,0,1,0,3.35,3.34A3.35,3.35,0,0,0,13.93,23.46Zm0,5.66a2.32,2.32,0,1,1,2.32-2.32A2.32,2.32,0,0,1,13.93,29.12Z"/></svg>