<svg id="레이어_1" data-name="레이어 1" xmlns="http://www.w3.org/2000/svg" width="50" height="50" viewBox="0 0 50 50">
  <g>
    <path d="M22.55,27.81c-6.22,0-11.07,3.22-11.07,7.34s4.85,7.35,11.07,7.35,11.07-3.23,11.07-7.35S28.77,27.81,22.55,27.81Zm0,11.73c-3.83,0-8.11-1.82-8.11-4.39s4.28-4.38,8.11-4.38a13.41,13.41,0,0,1,2.68.29c1.23.18,7.06,2,5.19,5.12C29.5,38.2,25.86,39.54,22.55,39.54Z" style="fill: #64e892"/>
    <path d="M29.66,25C25.33,19.39,19.35,17,16,19.46a5.38,5.38,0,0,0-2,3.7c-.42,3.13,1,7.14,3.78,10.73C21,38,25,40.37,28.27,40.37a5.19,5.19,0,0,0,3.15-1,5.36,5.36,0,0,0,2-3.7C33.86,32.56,32.44,28.54,29.66,25Zm.42,11.7c-.58.68-1.1.89-1.6.76-2.07.18-5.53-1.63-8.39-5.33-2.26-2.88-3.52-6.24-3.21-8.52a2.4,2.4,0,0,1,.87-1.73,2.43,2.43,0,0,1,1.44-.42c2.1,0,5.38,1.81,8.11,5.35A14.6,14.6,0,0,1,30.5,34,2.18,2.18,0,0,1,30.08,36.65Z" style="fill: #64e892"/>
    <path d="M29,7.5c-4.85,0-7.47,8.45-7.47,16.4S24.1,40.3,29,40.3s7.48-8.45,7.48-16.4S33.81,7.5,29,7.5Zm.5,29.75C26.93,38.8,25.18,31,25.18,31h0a31.16,31.16,0,0,1-.76-7.11c0-8.21,2.68-13.46,4.51-13.46s4.52,5.25,4.52,13.46C33.47,31.4,31.24,36.44,29.45,37.25Z" style="fill: #64e892"/>
  </g>
</svg>
