<?xml version="1.0" encoding="utf-8"?>
<!-- Generator: Adobe Illustrator 25.4.1, SVG Export Plug-In . SVG Version: 6.00 Build 0)  -->
<svg version="1.1" id="레이어_1" xmlns="http://www.w3.org/2000/svg" xmlns:xlink="http://www.w3.org/1999/xlink" x="0px"
	 y="0px" viewBox="0 0 877.5 126.9" style="enable-background:new 0 0 877.5 126.9;" xml:space="preserve">
<style type="text/css">
	.st0{fill:#0C9ED8;}
</style>
<g>
	<g>
		<path d="M464.5,36.2c-8.4,8-15.9,15-23.4,22.1c-9,8.5-34.2,29.7-34.2,29.7l0,0l-58.2-51.6l0,5.6c0,0,0,48.6,0,72.9
			c0,8.4-4.6,12.5-12,10.9c-4.6-1-6.7-4.1-6.9-8.5c-0.2-5.8-0.1-11.6-0.1-17.5c0-25.6,0-51.3,0-76.9c0-4.2,0.8-8,3.8-11
			c3.5-3.6,7.7-5,12.7-3.3c4.1,1.4,7.2,4,10.2,6.9c15.8,15.5,50.5,46.6,50.5,46.6l0.1,0.1c0,0,35.3-31.6,51.3-47.4
			c0.8-0.8,1.7-1.6,2.5-2.4c4.5-4.1,9.6-6.3,15.5-3.5c5.7,2.6,7.3,7.6,7.2,13.6c-0.1,23.6,0,47.3,0,70.9c0,7.2,0,14.3,0,21.5
			c-0.1,7.1-3.6,11.5-9.1,11.4c-6.7-0.1-9.9-3.8-9.9-11.6c0-24,0-47.9,0-71.9C464.5,41,464.5,39.2,464.5,36.2z"/>
		<path d="M812.8,96c0-17.1,0-33.4,0-49.6c0-9.3,0-18.6,0-28c0-6.8,3.3-10.6,9.1-10.7c6.2-0.1,9.8,3.6,9.8,10.5
			c0.1,31.8,0,63.6,0.1,95.3c0,5.1-1.7,9.4-6.3,11.5c-4.7,2.1-9.6,1.3-13.6-2.1C797.8,111,783.8,99,769.8,87
			c-19-16.2-58.9-50.9-59.5-51.4c0,1.9,0,4.1,0,5.5c-0.1,24.6,0,49.3-0.1,73.9c0,8-3.8,11.7-10.7,11c-4.4-0.4-7-2.8-7.8-7.1
			c-0.4-1.8-0.5-3.6-0.5-5.4c0-29.8,0-59.6,0-89.4c0-6.1-0.1-12.4,6.6-15.4c6.6-2.9,11.7,0.7,16.6,4.9
			c31.4,26.5,62.9,52.9,94.4,79.3C810,93.8,811.1,94.6,812.8,96z"/>
		<path d="M142.6,54.2c0-11.6,0-23.3,0-34.9c0-7.3,3.7-11.7,9.5-11.6c5.7,0.1,9.4,4.6,9.5,11.7c0,19.8,0,39.6,0,59.4
			c0,5.1,0.1,10.3,1.3,15.4c1.9,8.1,7.2,13.2,15,14.1c20.9,2.3,41.9,2,62.8,0.5c13.5-1,19-8.6,19.2-23.3c0.3-21.6,0.1-43.3,0.2-64.9
			c0-2-0.1-3.9,0.6-5.9c1.5-4.6,4.5-6.9,9.2-7c4.4-0.1,8.1,3.3,9,7.8c0.2,1,0.2,2,0.2,3c0,23,0.2,45.9-0.2,68.9
			c-0.2,12-3.5,22.9-14,30.5c-7.1,5.2-15.4,7.2-23.8,8.1c-21.1,2.3-42.2,2.5-63.3-0.4c-3.8-0.5-7.5-1.5-11.1-2.7
			c-14.5-4.8-23-16.2-23.7-32.8C142.6,78.2,142.7,54.2,142.6,54.2z"/>
		<path d="M592.9,124.6c-15.8,0-31.6,0-47.5,0c-8.6,0-10.9-2.3-10.9-11c0-17,0.1-33.9-0.1-50.9c0-3.3,0.9-4.1,4.1-4.1
			c25.3,0.2,50.6,0.1,75.9,0.3c8.7,0,12.2,3.2,11.6,10c-0.3,3.8-2.3,6.2-6,7c-4,0.8-7.2,0.7-7.4,0.7c-4.7,0-24.8,0-54.5,0
			c-1.5,0-3.1,0-4.6,0c0,0.9,0,2.6,0,4.5c-0.1,6.3,0,12.6,0,19c0,2.4,0,4.8,0,7.2c3.4,0,6,0,7.4,0c25,0,50,0,74.9,0
			c1.7,0,3.3,0,5,0.1c6.9,0.5,10.1,3.6,9.8,9.2c-0.3,5.4-3.6,8.1-10.4,8.1C624.5,124.6,608.7,124.6,592.9,124.6z"/>
		<path d="M0,66.5c0-16.1,0-32.3,0-48.4c0-6.1,2.8-9.6,8-10.4c6.4-0.9,10.9,3.1,11,10.3c0.1,12.1,0,24.3,0,36.4
			c0,14.6,0,29.3,0,43.9c0,8.6,0.1,8.7,8.5,8.7c24.1,0,48.3,0,72.4,0c2.2,0,4.3,0.1,6.5,0.3c5.4,0.6,8.2,3.7,8.1,8.8
			c-0.1,4.8-3.1,7.8-8.2,8.3c-1,0.1-2,0-3,0c-30.6,0-61.3,0-91.9,0c-9,0-11.3-2.3-11.3-11.1C0,97.8,0,82.2,0,66.5z"/>
		<path class="st0" d="M589.3,26.8c-16.6,0-33.3-0.1-49.9,0.1c-4,0.1-5.4-1.2-4.9-5c0.2-1.8,0-3.7,0.2-5.5c0.5-3.9,2.7-6.4,6.8-6.8
			c2.6-0.3,5.3-0.5,8-0.5c28.6,0,57.3,0,85.9,0c2.5,0,5,0.2,7.5,0.5c4.8,0.6,6.8,3.7,7.1,8.2c0.3,4.5-2,7.3-6.2,8.4
			c-2.1,0.5-4.3,0.5-6.4,0.5c-16,0-32,0-47.9,0C589.3,26.7,589.3,26.8,589.3,26.8z"/>
		<g>
			<path d="M860.6,7.9c2.1,0,4.1,0.4,6,1.2c1.9,0.8,3.5,1.9,4.9,3.3c1.4,1.4,2.5,3,3.3,4.9c0.8,1.9,1.2,3.9,1.2,6s-0.4,4.1-1.2,6
				s-1.9,3.5-3.3,4.9c-1.4,1.4-3,2.5-4.9,3.3c-1.9,0.8-3.9,1.2-6,1.2c-2.1,0-4.1-0.4-6-1.2c-1.9-0.8-3.5-1.9-4.9-3.3
				c-1.4-1.4-2.5-3.1-3.3-4.9s-1.2-3.9-1.2-6c0-2.2,0.4-4.3,1.2-6.2c0.8-1.9,1.9-3.5,3.3-4.9c1.4-1.4,3-2.4,4.9-3.2
				C856.3,8.2,858.4,7.9,860.6,7.9z M860.6,10.1c-1.9,0-3.6,0.3-5.2,1s-3,1.6-4.2,2.8c-1.2,1.2-2.1,2.6-2.8,4.2
				c-0.7,1.6-1,3.4-1,5.3c0,1.8,0.3,3.6,1,5.2c0.7,1.6,1.6,3,2.8,4.2c1.2,1.2,2.6,2.2,4.2,2.9s3.3,1,5.1,1c1.8,0,3.5-0.3,5.1-1
				s3-1.7,4.2-2.9c1.2-1.2,2.1-2.6,2.8-4.2c0.7-1.6,1-3.3,1-5.2c0-1.8-0.3-3.5-1-5.1c-0.7-1.6-1.6-3-2.8-4.2
				c-1.2-1.2-2.6-2.2-4.2-2.9S862.4,10.1,860.6,10.1z M863.4,24.5L863.4,24.5l5,8.2h-3.3l-4.1-7.7h-3.6v7.7h-2.7V13.4h5.9
				c2.3,0,4.1,0.5,5.3,1.5c1.2,1,1.8,2.3,1.8,4c0,1.5-0.4,2.8-1.1,3.6S864.7,24.1,863.4,24.5z M865,19c0-0.7-0.1-1.2-0.3-1.7
				c-0.2-0.4-0.5-0.8-0.9-1.1c-0.4-0.3-0.8-0.5-1.3-0.6c-0.5-0.1-1-0.2-1.6-0.2h-3.5V23h2.7c0.8,0,1.6-0.1,2.2-0.2
				c0.6-0.1,1.1-0.3,1.6-0.6c0.4-0.3,0.7-0.7,0.9-1.2C864.9,20.4,865,19.8,865,19z"/>
		</g>
	</g>
</g>
</svg>
