<?xml version="1.0" encoding="utf-8"?>
<!-- Generator: Adobe Illustrator 25.2.3, SVG Export Plug-In . SVG Version: 6.00 Build 0)  -->
<svg version="1.1" id="레이어_1" xmlns="http://www.w3.org/2000/svg" xmlns:xlink="http://www.w3.org/1999/xlink" x="0px"
	 y="0px" viewBox="0 0 294.7 104.6" style="enable-background:new 0 0 294.7 104.6;" xml:space="preserve">
<style type="text/css">
	.st0{fill:#172F61;}
</style>
<path class="st0" d="M212.5,34.8"/>
<path class="st0" d="M159.6,65l0.6,5.2c4.2,23.8,26.3,29.1,29.9,29.8c0.3,0.1,0.6,0.1,0.9,0.1h9.9c1.8-0.1,2.4-2.2,2.4-2.2L201.5,84
	c-0.2-1.7-2.4-1.8-2.4-1.8c-19,1.1-21.3-14.5-21.5-20V50.3c0-0.9,0.3-1.8,0.9-2.6l0.2-0.2c0.8-1,2-1.5,3.2-1.5h12.8
	c3.1,0,5.7-2.6,5.7-5.7v-6.6c0-3.1-2.6-5.7-5.7-5.7l-12.8,0c-1.1,0-2.1-0.4-2.9-1.2c-0.1-0.1-0.2-0.2-0.3-0.3
	c-0.8-0.8-1.1-1.9-1.1-3.1l0-13.9c0-3.1-2.6-5.7-5.7-5.7h-6.6c-3.1,0-5.7,2.6-5.7,5.7v55"/>
<path class="st0" d="M155.7,95.2l-30.5-31.7v-3.7L149.6,32c1.1-2.1-1.4-4.1-1.4-4.1h-17.1L110,50c-0.8,0.5-1,0.5-2.1,0.5
	c-1.1-0.3-2-0.8-2.7-1.4c-0.3-0.2-0.4-0.5-0.4-0.9l0-42c0-1.6-1.3-3-3-3H89.8c-1.6,0-3,1.3-3,3v90.2c0,1.6,1.3,3,3,3h12.1
	c1.6,0,3-1.3,3-3V74.2c1.1-1.1,2.1-1.4,2.1-1.4h2.3l25.5,26.2c0.6,0.6,1.4,0.9,2.2,0.9h17.6C157.9,97.4,155.7,95.2,155.7,95.2z"/>
<path class="st0" d="M290.8,81.6c-10,0.6-11.9-8-12.2-12.8v-3.5c0-0.5,0.1-0.9,0.1-1.4c0-0.5-0.1-0.9-0.1-1.4V31.1c0-1.6-1.3-3-3-3
	h-12.1c-1.6,0-3,1.3-3,3v1.6c-6.1-3.5-13.2-5.3-20.8-4.7c-17.9,1.4-32.4,16.4-33.1,34.4c-0.9,20.6,15.6,37.6,36,37.6
	c8.9,0,17.1-3.3,23.4-8.7c6.6,10.1,18.1,9.2,18.1,9.2c7.3,0,8.3-2.6,8.3-2.6V83.6C292.4,81.8,290.8,81.6,290.8,81.6z M242.6,82.8
	c-11.6,0-20.8-10.5-18.4-22.6c1.4-7.4,7.4-13.3,14.8-14.7c10-1.9,18.9,4.1,21.6,12.8v11.4C258.1,77.2,251,82.8,242.6,82.8z"/>
<g>
	<path class="st0" d="M40.8,28c-20,0-36.3,16.3-36.3,36.3c0,20,16.3,36.3,36.3,36.3c20,0,36.3-16.3,36.3-36.3
		C77.1,44.2,60.8,28,40.8,28z M40.8,82.6c-10.1,0-18.3-8.2-18.3-18.3c0-10.1,8.2-18.3,18.3-18.3s18.3,8.2,18.3,18.3
		C59.1,74.4,50.9,82.6,40.8,82.6z"/>
</g>
</svg>
