<svg id="레이어_1" data-name="레이어 1" xmlns="http://www.w3.org/2000/svg" viewBox="0 0 50 50"><defs><style>.cls-1{fill:#0075a8;}</style></defs><path class="cls-1" d="M45,19.74l-.44-2.6c-.14-.84-.46-1.52-.72-1.52s-.47.69-.47,1.54v.68a1.54,1.54,0,0,1-1.54,1.54H41v1.87h2.71A1.27,1.27,0,0,0,45,20c0-.1,0-.2,0-.3"/><path class="cls-1" d="M38.84,17.54H30.18v-.4c0-.85-.21-1.54-.47-1.54s-.59.7-.72,1.53l-.44,2.6a1.26,1.26,0,0,0,1,1.49,1.63,1.63,0,0,0,.31,0H32.4a2.33,2.33,0,0,0,.73-.12,1,1,0,0,1-.93.78H28.6a.94.94,0,0,1-.94-.94.76.76,0,0,1,0-.15L28,18.65a.94.94,0,0,0-.77-1.09h-18a1,1,0,0,0-.86.55L5,23.22a.23.23,0,0,0,0,.28l.65.77a.22.22,0,0,0,.32,0l2.29-1.8v11a.94.94,0,0,0,.94.94h5.07a.94.94,0,0,0,.94-.94v-3.8a.94.94,0,0,1,.94-.94H28.87a.94.94,0,0,1,.94.94v3.8a.94.94,0,0,0,.94.94h5.07a.94.94,0,0,0,.94-.94v-4.1H34.07a1.54,1.54,0,0,1-1.54-1.54V25.18a1.54,1.54,0,0,1,.62-1.24v3.15a1.54,1.54,0,0,0,1.54,1.54h4.15a1.54,1.54,0,0,0,1.54-1.54v-8a1.55,1.55,0,0,0-1.54-1.54"/></svg>