<?xml version="1.0" encoding="utf-8"?>
<!-- Generator: Adobe Illustrator 26.0.1, SVG Export Plug-In . SVG Version: 6.00 Build 0)  -->
<svg version="1.1" id="레이어_1" xmlns="http://www.w3.org/2000/svg" xmlns:xlink="http://www.w3.org/1999/xlink" x="0px"
	 y="0px" viewBox="0 0 446 463" style="enable-background:new 0 0 446 463;" xml:space="preserve">
<style type="text/css">
	.st0{fill:#FEA300;}
	.st1{fill:#808284;}
	.st2{fill:#A6A8AB;}
</style>
<g>
	<path class="st0" d="M226.9,425.85c0-7.46,0.44-14.96-0.15-22.37c-0.42-5.32,1.39-7.08,6.43-7.5c21.26-1.78,41.34-7.84,60.05-18.04
		c48.63-26.51,78.32-67.05,86.87-121.79c8.64-55.3-8-103.28-47.03-142.96c-27.61-28.07-61.78-43.67-101.08-47.5
		c-4.03-0.39-5.26-1.38-5.19-5.54c0.27-16.04,0.29-32.09-0.01-48.12c-0.08-4.57,1.68-5.26,5.54-4.96
		c98.4,7.63,179.57,76.65,202.25,172.54c23.49,99.28-23.36,201.9-113.37,249.65c-28.08,14.89-58.03,22.94-89.55,25.74
		c-3.53,0.31-4.98-0.64-4.84-4.52C227.1,442.27,226.9,434.06,226.9,425.85z"/>
	<path class="st1" d="M6.37,230.45C6.29,127,81.94,39.61,184.87,23.97c14.01-2.13,14.01-2.13,14.01,11.96c0,11.4,0,11.4-11.37,13.03
		C109.92,60.13,46.19,123.29,33.98,201.12c-15.02,95.73,44.04,185.3,137.53,208.56c7.6,1.89,15.28,3.49,23.1,4.05
		c3.41,0.25,4.48,1.44,4.34,4.76c-0.23,5.59-0.25,11.2,0.01,16.79c0.16,3.6-1.16,4.45-4.55,4.07
		c-40.08-4.5-76.38-18.56-107.98-43.67c-45.37-36.06-71.47-83.2-78.91-140.66c-0.55-4.25-0.9-8.53-1.11-12.82
		C6.22,238.29,6.37,234.37,6.37,230.45z"/>
	<path class="st2" d="M215.71,318.39c13.49-0.51,26.71-2.51,39.03-8.31c3.17-1.49,4.94-0.93,7.13,1.49
		c6.75,7.47,13.67,14.77,20.58,22.1c2.1,2.23,3.17,4.06-0.45,5.94c-13.99,7.24-28.61,12.54-44.23,15.01
		c-2.77,0.44-4.08-0.16-5.02-2.75c-7.15-19.84-37.08-23.42-48.23-2.91c-1.43,2.63-2.98,3.02-5.77,2.25
		c-15.82-4.36-30.24-11.53-43.64-20.92c-2.14-1.5-2.53-2.98-1.72-5.64c6.77-22.19-9.56-40.31-32.05-35.55
		c-3.11,0.66-4.29-0.37-5.67-2.75c-8.31-14.37-13.31-29.85-16.28-46.11c-0.7-3.8,1.98-3.86,3.95-4.84
		c13.8-6.9,19.25-21.12,13.38-35.3c-2.29-5.54-6.25-9.73-11.48-12.52c-2.65-1.41-3.24-2.85-2.39-5.76
		c4.37-14.98,10.87-28.9,19.8-41.71c2-2.87,3.26-3.24,5.76-0.24c6.44,7.72,13.13,15.26,20.06,22.55c2.65,2.79,2.85,4.71,1,8.12
		c-17.39,32.09-17.9,64.72-0.4,96.64c16.43,29.96,42.6,46.52,76.63,50.47c1.66,0.19,3.3,0.6,4.97,0.73
		C212.35,318.49,214.04,318.39,215.71,318.39z"/>
	<path class="st0" d="M226.48,105.54c41.82,2.2,79.57,24.39,99.71,70.5c20.16,46.15,11.98,89.3-21.07,127.45
		c-1.29,1.49-2.26,5.62-5.79,2.74c-5.94-4.85-6.53-7.43-3.24-11.37c26.56-31.92,33.9-67.94,19.4-106.72
		c-14.59-39.02-43.9-61.65-85.23-67.81c-25.14-3.74-48.51,1.99-70.11,15.29c-1.37,0.85-2.83,3.36-4.74,1.41
		c-2.46-2.51-4.51-5.43-6.52-8.32c-0.09-0.13,2-1.93,3.22-2.75C172.14,112.44,194.23,105.57,226.48,105.54z"/>
</g>
</svg>
