<?xml version="1.0" encoding="utf-8"?>
<!-- Generator: Adobe Illustrator 25.2.3, SVG Export Plug-In . SVG Version: 6.00 Build 0)  -->
<svg version="1.1" id="레이어_1" xmlns="http://www.w3.org/2000/svg" xmlns:xlink="http://www.w3.org/1999/xlink" x="0px"
	 y="0px" viewBox="0 0 55.1 29.9" style="enable-background:new 0 0 55.1 29.9;" xml:space="preserve">
<style type="text/css">
	.st0{fill:#34B677;}
</style>
<g id="Layer_1_1_">
	<g>
		<g>
			<path class="st0" d="M51.4,11.7c-0.3,0.2-0.7,0.2-0.9,0c-0.5-0.3-0.5-0.9-0.1-1.3c0.4-0.4,0.8-0.4,1.2,0
				C51.9,10.8,51.9,11.4,51.4,11.7 M52.8,9.8c0.6,2.3-1.5,4.4-3.8,3.8c-1.2-0.3-2.1-1.2-2.3-2.3c-0.6-2.3,1.5-4.4,3.8-3.8
				C51.6,7.8,52.5,8.7,52.8,9.8 M37.3,22.3c0.3,0.4,0.5,0.7,0.6,1.1c0.1,0.3,0.2,0.6,0.5,0.7l0,0c0.5,0.2,1.7,0.2,1.7,0.2h2.2
				c0.2,0,1.9,0,1.8-0.2c-0.2-0.9-1.2-1-2.1-1.5c-0.7-0.5-1.4-0.9-1.7-1.8c-0.2-0.5-0.1-1.4,0.2-1.8c0.2-0.3,0.5-0.5,0.8-0.5
				c0.4-0.1,0.7,0,1.1,0c0.5,0,0.8,0.1,1.3,0.2c0.8,0.1,1.7,0.2,2.5,0.1c1.4,0,2.8-0.3,4.2-0.7c0.9-0.3,1.9-0.7,2.6-1.3
				c0.9-0.7,0.7-0.7-0.3-0.6c-1.1,0.1-2.2,0.1-3.3,0.1c-1-0.1-2.1-0.2-3-0.7c-0.7-0.4-1.4-0.7-2-1.3c-0.1-0.1-0.2-0.4,0-0.5
				c0.2-0.2,0.5-0.1,0.6,0c1,0.8,2.5,1.6,4.1,1.6c0.8,0,1.7,0.1,2.5,0c0.5,0,1,0,1.5,0c0.2,0,0.8,0.1,0.9-0.2c0-0.1,0-0.2,0-0.2
				c-0.1-3.4-0.4-7.2-3.9-8.8c-2.6-1.2-6.6-3.1-8.3-3.8C41.4,2.2,41,2.5,41,3c0,1.1,0.1,2.7,0.1,4.2c-0.8-0.8-2.1-1.3-3.2-1.8
				c-1.2-0.6-2.3-1-3.6-1.4c-2.4-0.7-5-1.2-7.6-1.5c-2.9-0.3-5.9-0.2-8.8,0.5C13.1,3.9,8.6,6.3,5,9.5c-2,1.9-3.7,4.8-3.8,7.7
				c-0.2,4.2,1,6.4,3.2,8.7c3.5,3.6,10.7,4.2,13.7-0.2c1.3-2,1.6-4.6,0.7-6.8c-0.9-2.1-3.2-3.7-5.6-3.8c-1.9-0.1-3.8,0.8-4.5,2.6
				c-0.6,1.3-0.2,2.9,0.7,3.9c0.4,0.4,0.9,0.7,1.5,0.6c0.4-0.1,0.7-0.3,0.7-0.7c0.1-0.5-0.4-0.8-0.7-1.2c-0.5-0.7-0.4-1.7,0.2-2.3
				c0.5-0.5,1.3-0.7,2-0.7s1.3,0.1,1.9,0.5c0.8,0.5,1.3,1.3,1.5,2.2c0.6,2.7-1.7,4.9-4.7,5.1c-1.6,0.1-3.1-0.3-4.3-1.3
				c-3.1-2.4-3.8-7.5-0.3-10.2c3.3-2.5,7.5-1.9,10-0.6c2,1,3.5,2.8,4.6,4.7c0.6,0.9,1,2,1.5,3s0.8,2,1.7,2.7c0.6,0.5,1.2,0.5,2,0.5
				h4.2c0.6,0,0.5-0.4,0.2-0.7c-0.6-0.6-1.4-0.7-2.1-0.9c-1.7-0.5-1.5-2.7-1-2.7c1.5,0,1.6,0,2.9,0c2,0,2.5-0.1,4,0.4
				C36,20.8,36.8,21.5,37.3,22.3"/>
		</g>
	</g>
</g>
</svg>
