<?xml version="1.0" encoding="utf-8"?>
<!-- Generator: Adobe Illustrator 25.2.3, SVG Export Plug-In . SVG Version: 6.00 Build 0)  -->
<svg version="1.1" id="레이어_1" xmlns="http://www.w3.org/2000/svg" xmlns:xlink="http://www.w3.org/1999/xlink" x="0px"
	 y="0px" viewBox="0 0 50 50" style="enable-background:new 0 0 50 50;" xml:space="preserve">
<style type="text/css">
	.st0{fill:#FF9E16;}
</style>
<g>
	<path class="st0" d="M42.8,27.3c-0.7,0.9-1.6,1.6-2.6,2.1c0.5-0.7,0.8-1.5,0.7-2.5c-3.4,0-6.1,2.2-4.8,6.5c0.7-0.1,1.1-0.6,1.5-1.1
		c0,0.6-0.1,1.3-0.6,2.1l0.3,0.7c-0.9,0.6-2.2,1.8-3.2,1.5c-2.8-3.2-7.1-4.1-12.7-0.7c0.4-1,0.7-1.7,1.6-2.5c-1,0-3,0.2-4.5,1.1
		c0-4.1,0.7-8.2,1.9-12.2c-2.7,4.6-4,10-5.3,16.5c-1.4-6.1-2.5-10.4-1.5-17.5c-2.8,0.5-6,2.4-8.6,4c3-4,9.6-8.4,12.5-9.2
		c-1.4,2.3-2.3,5.4-2.5,7.9l1.3-0.1c-0.5,1.1-1.1,3.8-1.1,6c0.4-2.3,1.6-5.5,2.7-7.4l-1.6,0.1c0.9-3.2,3-6.3,4.9-7.3
		c0.8-0.3,1.6-0.4,2.5-0.3c-0.2,1.3-1.3,8-0.8,11.2c0-3.3,1.6-12.7,2.9-15c2.1,1.8,2.4,2.7,3.2,4.3c4.1,0.2,7.2,2.1,10.2,4.4
		c-0.1,0.2-0.2,0.4-0.5,0.5c0.8,0.3,2.7,1.4,3.5,2c1,0.8,2.2,1.9,2.9,2.7l-1.2,1.8l-0.5-1.6l1.1-0.2l-1.4,0l0.6,1.9L42.8,27.3z
		 M37,22.4L35.9,21L33,20.2l1.7,1.4l1-0.1L37,22.4z"/>
</g>
</svg>
