<svg id="레이어_1" data-name="레이어 1" xmlns="http://www.w3.org/2000/svg" viewBox="0 0 50 50"><defs><style>.cls-1{fill:#ff7300;fill-rule:evenodd;}</style></defs><path d="M34.48,21.44a6.53,6.53,0,0,1,1.86-.25,5.52,5.52,0,0,1,4.26,1.72,5.6,5.6,0,0,1,1.64,4A6.4,6.4,0,0,1,41.47,30a20.27,20.27,0,0,1-3,3.83l-4.74,5.13H42.5V40.8h-13l7.28-7.89a23.79,23.79,0,0,0,2.89-3.53A4.93,4.93,0,0,0,40.39,27a3.64,3.64,0,0,0-1.21-2.76A4.09,4.09,0,0,0,36.25,23a5.11,5.11,0,0,0-1.81.34C34.48,22.91,34.48,21.62,34.48,21.44Z"/><path d="M20.56,9.2a13,13,0,1,0,13.06,13A13,13,0,0,0,20.56,9.2Zm0,23.67A10.61,10.61,0,1,1,31.08,22.26,10.56,10.56,0,0,1,20.56,32.87Z"/><path class="cls-1" d="M31,23H28.06l-3,5.43-4.52-11.2-3.19,7.11H10.26l-.13-.69A10.49,10.49,0,0,0,31,22.22,4.47,4.47,0,0,1,31,23Z"/><path class="cls-1" d="M20.56,11.62A10.55,10.55,0,0,0,10,22.22v.52h6.25l4.27-9.49L25.3,24.81l1.9-3.41H31c0,.26,0,.56,0,.82A10.53,10.53,0,0,0,20.56,11.62Z"/><path class="cls-1" d="M10.13,23.47a4.47,4.47,0,0,1,0-.73A4.23,4.23,0,0,0,10.13,23.47Z"/></svg>